<svg width="30" height="30" viewBox="0 0 30 30" fill="none" xmlns="http://www.w3.org/2000/svg">
<path d="M13.2317 13.2332C12.763 13.7022 12.4997 14.3381 12.4998 15.0012M13.2317 13.2332C13.2317 13.2332 12.7856 14.3108 12.4998 15.0012M13.2317 13.2332C13.2317 13.2332 14.7859 11.8508 16.768 12.9567C17.4789 13.5632 17.7641 14.0153 17.8125 15C17.8238 15.8408 16.9792 16.6335 16.768 16.7682C16.5567 16.903 15.7258 17.5008 15.0003 17.5008C14.2748 17.5008 13.7013 17.2376 13.2324 16.7689C12.7634 16.3001 12.4999 15.6642 12.4998 15.0012M20.8512 20.8413C19.0978 21.9384 17.0683 22.5137 15 22.5C10.5 22.5 6.75 20 3.75 15C5.34 12.35 7.5 10.3125 9.15 9.15754L10.3125 8.4375L12.725 7.72504C13.4738 7.57345 14.236 7.49807 15 7.50004C19.5 7.50004 23.25 10 26.25 15C25.4175 16.3875 24.3863 17.7462 23.4375 18.75L20.8512 20.8413Z" stroke="#63676B" stroke-width="1.3" stroke-linecap="round" stroke-linejoin="round"/>
</svg>
