<svg width="30" height="30" viewBox="0 0 30 30" fill="none" xmlns="http://www.w3.org/2000/svg">
<path d="M13.2313 13.2336C12.7626 13.7026 12.4993 14.3385 12.4994 15.0016C12.4995 15.6646 12.763 16.3005 13.232 16.7693C13.7009 17.238 14.3368 17.5013 14.9999 17.5012C15.663 17.5011 16.2988 17.2376 16.7676 16.7686M20.8512 20.8413C19.0978 21.9384 17.0683 22.5137 15 22.5C10.5 22.5 6.75 20 3.75 15C5.34 12.35 7.14 10.4025 9.15 9.15754M12.725 7.72504C13.4738 7.57345 14.236 7.49807 15 7.50004C19.5 7.50004 23.25 10 26.25 15C25.4175 16.3875 24.5262 17.5838 23.5775 18.5875M3.75 3.75L26.25 26.25" stroke="#63676B" stroke-width="1.3" stroke-linecap="round" stroke-linejoin="round"/>
</svg>
