<svg width="36" height="35" viewBox="0 0 36 35" fill="none" xmlns="http://www.w3.org/2000/svg">
<rect width="36" height="35" fill="#1877F2"/>
<path d="M33 17.5886C33 9.53154 26.2843 3 18 3C9.71572 3 3 9.53154 3 17.5886C3 24.8702 8.48528 30.9056 15.6562 32V21.8056H11.8477V17.5886H15.6562V14.3746C15.6562 10.7183 17.8956 8.69868 21.322 8.69868C22.9631 8.69868 24.6797 8.98361 24.6797 8.98361V12.5738H22.7882C20.9249 12.5738 20.3438 13.6983 20.3438 14.852V17.5886H24.5039L23.8389 21.8056H20.3438V32C27.5147 30.9056 33 24.8702 33 17.5886Z" fill="white"/>
</svg>
