<svg width="30" height="31" viewBox="0 0 30 31" fill="none" xmlns="http://www.w3.org/2000/svg">
<rect width="30" height="30" fill="white"/>
<path fill-rule="evenodd" clip-rule="evenodd" d="M29.9 15.8409C29.9 14.7772 29.8045 13.7545 29.6273 12.7727H15.5V18.575H23.5727C23.225 20.45 22.1682 22.0386 20.5795 23.1022V26.8659H25.4273C28.2636 24.2545 29.9 20.4091 29.9 15.8409Z" fill="#4285F4"/>
<path fill-rule="evenodd" clip-rule="evenodd" d="M15.4993 30.4997C19.5493 30.4997 22.9447 29.1565 25.4265 26.8656L20.5788 23.102C19.2356 24.002 17.5175 24.5338 15.4993 24.5338C11.5925 24.5338 8.28564 21.8952 7.10609 18.3497H2.09473V22.2361C4.56291 27.1384 9.63564 30.4997 15.4993 30.4997Z" fill="#34A853"/>
<path fill-rule="evenodd" clip-rule="evenodd" d="M7.10682 18.3502C6.80682 17.4502 6.63636 16.4888 6.63636 15.5002C6.63636 14.5115 6.80682 13.5502 7.10682 12.6502V8.76379H2.09545C1.07955 10.7888 0.5 13.0797 0.5 15.5002C0.5 17.9206 1.07955 20.2115 2.09545 22.2365L7.10682 18.3502Z" fill="#FBBC05"/>
<path fill-rule="evenodd" clip-rule="evenodd" d="M15.4993 6.46591C17.7015 6.46591 19.6788 7.22273 21.2334 8.70909L25.5356 4.40682C22.9379 1.98636 19.5425 0.5 15.4993 0.5C9.63564 0.5 4.56291 3.86136 2.09473 8.76364L7.10609 12.65C8.28564 9.10454 11.5925 6.46591 15.4993 6.46591Z" fill="#EA4335"/>
</svg>
