<svg width="34" height="34" viewBox="0 0 34 34" fill="none" xmlns="http://www.w3.org/2000/svg">
<path d="M21.958 23.9413L23.9413 21.958C24.083 21.8163 24.1538 21.6511 24.1538 21.4622C24.1538 21.2733 24.083 21.108 23.9413 20.9663L19.1247 16.1143C19.2191 15.8545 19.29 15.5948 19.3372 15.3351C19.3844 15.0754 19.408 14.7802 19.408 14.4497C19.408 13.1038 18.9299 11.9528 17.9736 10.9965C17.0174 10.0403 15.8663 9.56217 14.5205 9.56217C14.1191 9.56217 13.7177 9.6153 13.3163 9.72155C12.915 9.8278 12.5254 9.97537 12.1476 10.1643L15.4768 13.4934L13.4934 15.4768L10.1643 12.1476C9.97537 12.5254 9.8278 12.915 9.72155 13.3163C9.6153 13.7177 9.56217 14.1191 9.56217 14.5205C9.56217 15.8663 10.0403 17.0174 10.9965 17.9736C11.9528 18.9299 13.1038 19.408 14.4497 19.408C14.7566 19.408 15.0459 19.3844 15.3174 19.3372C15.5889 19.29 15.8545 19.2191 16.1143 19.1247L20.9663 23.9413C21.108 24.083 21.2733 24.1538 21.4622 24.1538C21.6511 24.1538 21.8163 24.083 21.958 23.9413ZM16.9997 31.1663C15.04 31.1663 13.1983 30.7945 11.4747 30.0507C9.75106 29.307 8.25176 28.2976 6.97676 27.0226C5.70176 25.7476 4.69238 24.2483 3.94863 22.5247C3.20488 20.8011 2.83301 18.9594 2.83301 16.9997C2.83301 15.04 3.20488 13.1983 3.94863 11.4747C4.69238 9.75106 5.70176 8.25176 6.97676 6.97676C8.25176 5.70176 9.75106 4.69238 11.4747 3.94863C13.1983 3.20488 15.04 2.83301 16.9997 2.83301C18.9594 2.83301 20.8011 3.20488 22.5247 3.94863C24.2483 4.69238 25.7476 5.70176 27.0226 6.97676C28.2976 8.25176 29.307 9.75106 30.0507 11.4747C30.7945 13.1983 31.1663 15.04 31.1663 16.9997C31.1663 18.9594 30.7945 20.8011 30.0507 22.5247C29.307 24.2483 28.2976 25.7476 27.0226 27.0226C25.7476 28.2976 24.2483 29.307 22.5247 30.0507C20.8011 30.7945 18.9594 31.1663 16.9997 31.1663ZM16.9997 28.333C20.1636 28.333 22.8434 27.2351 25.0393 25.0393C27.2351 22.8434 28.333 20.1636 28.333 16.9997C28.333 13.8358 27.2351 11.1559 25.0393 8.96009C22.8434 6.76426 20.1636 5.66634 16.9997 5.66634C13.8358 5.66634 11.1559 6.76426 8.96009 8.96009C6.76426 11.1559 5.66634 13.8358 5.66634 16.9997C5.66634 20.1636 6.76426 22.8434 8.96009 25.0393C11.1559 27.2351 13.8358 28.333 16.9997 28.333Z" fill="#2B2B2B"/>
</svg>
