<svg width="34" height="34" viewBox="0 0 34 34" fill="none" xmlns="http://www.w3.org/2000/svg">
<path d="M17.0003 17.0003C15.442 17.0003 14.108 16.4455 12.9982 15.3357C11.8885 14.226 11.3337 12.892 11.3337 11.3337C11.3337 9.77533 11.8885 8.4413 12.9982 7.33158C14.108 6.22185 15.442 5.66699 17.0003 5.66699C18.5587 5.66699 19.8927 6.22185 21.0024 7.33158C22.1121 8.4413 22.667 9.77533 22.667 11.3337C22.667 12.892 22.1121 14.226 21.0024 15.3357C19.8927 16.4455 18.5587 17.0003 17.0003 17.0003ZM5.66699 28.3337V24.367C5.66699 23.5642 5.87359 22.8264 6.28678 22.1535C6.69998 21.4805 7.24894 20.967 7.93366 20.6128C9.39755 19.8809 10.885 19.3319 12.3962 18.966C13.9073 18.6 15.442 18.417 17.0003 18.417C18.5587 18.417 20.0934 18.6 21.6045 18.966C23.1156 19.3319 24.6031 19.8809 26.067 20.6128C26.7517 20.967 27.3007 21.4805 27.7139 22.1535C28.1271 22.8264 28.3337 23.5642 28.3337 24.367V28.3337H5.66699ZM8.50033 25.5003H25.5003V24.367C25.5003 24.1073 25.4354 23.8712 25.3055 23.6587C25.1757 23.4462 25.0045 23.2809 24.792 23.1628C23.517 22.5253 22.2302 22.0472 20.9316 21.7285C19.633 21.4097 18.3225 21.2503 17.0003 21.2503C15.6781 21.2503 14.3677 21.4097 13.0691 21.7285C11.7705 22.0472 10.4837 22.5253 9.20866 23.1628C8.99616 23.2809 8.82498 23.4462 8.69512 23.6587C8.56526 23.8712 8.50033 24.1073 8.50033 24.367V25.5003ZM17.0003 14.167C17.7795 14.167 18.4465 13.8896 19.0014 13.3347C19.5562 12.7798 19.8337 12.1128 19.8337 11.3337C19.8337 10.5545 19.5562 9.88748 19.0014 9.33262C18.4465 8.77776 17.7795 8.50033 17.0003 8.50033C16.2212 8.50033 15.5541 8.77776 14.9993 9.33262C14.4444 9.88748 14.167 10.5545 14.167 11.3337C14.167 12.1128 14.4444 12.7798 14.9993 13.3347C15.5541 13.8896 16.2212 14.167 17.0003 14.167Z" fill="#2B2B2B"/>
</svg>
