<svg width="874" height="673" viewBox="0 0 874 673" fill="none" xmlns="http://www.w3.org/2000/svg">
<g clip-path="url(#clip0_452_12432)">
<path d="M488.13 175.286L488.17 159.048C488.196 147.702 475.966 138.478 460.854 138.438H455.253L455.159 175.208L488.13 175.286Z" fill="white" stroke="white" stroke-miterlimit="10"/>
<path d="M455.123 183.124L455.044 214.598L488.015 214.677L488.094 183.203L455.123 183.124Z" fill="white" stroke="white" stroke-miterlimit="10"/>
<path d="M412.388 183.033L412.313 214.507L445.283 214.589L445.359 183.115L412.388 183.033Z" fill="white" stroke="white" stroke-miterlimit="10"/>
<path d="M445.476 138.412H439.874C424.763 138.36 412.479 147.533 412.452 158.879L412.412 175.117L445.383 175.195L445.476 138.412Z" fill="white" stroke="white" stroke-miterlimit="10"/>
<path d="M873.973 495.437H380.602V516.255H873.973V495.437Z" fill="white"/>
<path d="M11.2436 477.417V255.304H75.4908L93.2299 390.724L110.849 255.304H175.696V477.417H137.097V317.393L112.889 477.417H75.0107L49.3625 317.393V477.417H11.2436Z" fill="white"/>
<path d="M194.396 477.417V255.304H278.783V298.215H237.303V341.503H277.102V383.281H237.303V434.142H281.53V477.43H194.382L194.396 477.417Z" fill="white"/>
<path d="M345.537 479.434C326.278 479.434 312.393 474.385 303.884 464.289C295.375 454.192 291.12 438.123 291.12 416.082V394.38H332.827V422.146C332.827 427.285 333.56 431.292 335.041 434.194C336.521 437.095 339.095 438.553 342.776 438.553C346.458 438.553 349.272 437.382 350.752 435.014C352.233 432.659 352.966 428.794 352.966 423.408C352.966 416.59 352.326 410.891 351.046 406.311C349.765 401.731 347.551 397.346 344.39 393.183C341.229 389.019 336.855 384.153 331.266 378.61L312.327 359.679C298.189 345.627 291.107 329.559 291.107 311.473C291.107 293.388 295.281 278.113 303.631 268.185C311.98 258.258 324.064 253.287 339.896 253.287C359.235 253.287 372.959 258.713 381.069 269.564C389.178 280.416 393.233 296.914 393.233 319.033H350.326V303.757C350.326 300.726 349.499 298.371 347.871 296.692C346.231 295.014 344.017 294.168 341.216 294.168C337.855 294.168 335.401 295.157 333.84 297.135C332.28 299.113 331.506 301.663 331.506 304.772C331.506 307.882 332.306 311.252 333.907 314.869C335.507 318.486 338.655 322.65 343.377 327.36L367.704 351.964C372.573 356.843 377.054 361.995 381.135 367.421C385.217 372.847 388.484 379.157 390.965 386.352C393.446 393.547 394.686 402.317 394.686 412.661C394.686 433.53 391.032 449.872 383.723 461.686C376.414 473.514 363.69 479.421 345.551 479.421L345.537 479.434ZM326.478 558.567L334.387 528.785H319.169V491.183H363.997V527.653L351.766 558.567H326.478Z" fill="white"/>
<path d="M426.803 477.417V297.955H401.755V255.304H494.052V297.955H469.004V477.417H426.817H426.803Z" fill="white"/>
<path d="M505.802 477.417V255.304H590.189V298.215H548.709V341.503H588.508V383.281H548.709V434.142H592.937V477.43H505.802V477.417Z" fill="white"/>
<path d="M606.848 477.417V255.304H671.575C682.365 255.304 690.515 257.893 696.023 263.072C701.532 268.25 705.226 275.484 707.107 284.774C708.987 294.077 709.921 304.994 709.921 317.523C709.921 330.053 708.467 339.317 705.546 346.551C702.625 353.785 697.13 358.795 689.061 361.566C695.69 362.997 700.345 366.471 703.025 371.975C705.706 377.491 707.04 384.622 707.04 393.365V477.417H665.453V390.464C665.453 383.984 664.2 379.964 661.679 378.415C659.158 376.854 655.103 376.086 649.515 376.086V477.43H606.848V477.417ZM649.755 337.586H659.945C665.773 337.586 668.694 330.899 668.694 317.523C668.694 308.858 668.054 303.185 666.774 300.492C665.493 297.798 663.093 296.458 659.585 296.458H649.755V337.599V337.586Z" fill="white"/>
<path d="M722.805 477.417V255.304H763.565V477.417H722.805Z" fill="white"/>
<path d="M780.343 477.417V255.304H864.73V298.215H823.264V341.503H863.063V383.281H823.264V434.142H867.491V477.43H780.357L780.343 477.417Z" fill="white"/>
<path d="M116.171 672.076V570.186H145.86C150.808 570.186 154.543 571.37 157.077 573.751C159.611 576.132 161.305 579.45 162.159 583.705C163.026 587.972 163.452 592.982 163.452 598.733C163.452 604.484 162.785 608.725 161.452 612.043C160.118 615.361 157.597 617.664 153.889 618.926C156.93 619.576 159.064 621.177 160.291 623.701C161.518 626.225 162.132 629.504 162.132 633.511V672.063H143.059V632.171C143.059 629.205 142.486 627.357 141.325 626.641C140.165 625.926 138.311 625.575 135.75 625.575V672.063H116.171V672.076ZM135.857 607.931H140.525C143.206 607.931 144.54 604.861 144.54 598.733C144.54 594.764 144.246 592.149 143.659 590.913C143.072 589.677 141.979 589.065 140.365 589.065H135.857V607.931Z" fill="white"/>
<path d="M169.841 672.076V570.186H208.547V589.872H189.527V609.727H207.787V628.892H189.527V652.221H209.814V672.076H169.841Z" fill="white"/>
<path d="M213.548 672.076L222.898 570.186H255.722L264.898 672.076H246.586L245.212 655.63H233.555L232.341 672.076H213.535H213.548ZM234.942 639.366H243.745L239.517 587.556H238.636L234.955 639.366H234.942Z" fill="white"/>
<path d="M270.847 672.076V570.186H297.455C304.417 570.186 309.659 572.216 313.18 576.288C316.701 580.361 318.462 586.32 318.462 594.153V641.851C318.462 651.506 316.861 658.948 313.647 664.192C310.433 669.435 304.818 672.063 296.788 672.063H270.833L270.847 672.076ZM290.306 654.069H293.654C297.215 654.069 298.989 652.26 298.989 648.63V596.065C298.989 592.669 298.562 590.484 297.695 589.495C296.828 588.506 295.081 588.025 292.44 588.025H290.293V654.082L290.306 654.069Z" fill="white"/>
<path d="M338.095 672.076V638.56L322.65 570.186H341.843L347.231 604.692L352.62 570.186H371.759L356.367 638.56V672.076H338.108H338.095Z" fill="white"/>
<path d="M375.374 672.011V654.759H395.06V672.011H375.374Z" fill="white"/>
<path d="M451.745 673C442.915 673 436.54 670.684 432.632 666.052C428.724 661.42 426.777 654.043 426.777 643.933V633.98H445.916V646.718C445.916 649.073 446.25 650.92 446.93 652.247C447.61 653.574 448.784 654.251 450.478 654.251C452.172 654.251 453.452 653.705 454.132 652.625C454.812 651.545 455.146 649.775 455.146 647.303C455.146 644.18 454.852 641.565 454.266 639.457C453.679 637.35 452.665 635.346 451.211 633.433C449.757 631.521 447.757 629.296 445.196 626.746L436.513 618.067C430.031 611.627 426.777 604.249 426.777 595.948C426.777 587.647 428.697 580.647 432.525 576.093C436.353 571.539 441.902 569.262 449.157 569.262C458.027 569.262 464.322 571.748 468.043 576.731C471.764 581.714 473.618 589.274 473.618 599.422H453.932V592.422C453.932 591.03 453.559 589.95 452.798 589.182C452.051 588.415 451.025 588.024 449.744 588.024C448.21 588.024 447.077 588.48 446.356 589.378C445.636 590.288 445.289 591.446 445.289 592.878C445.289 594.309 445.649 595.844 446.383 597.51C447.117 599.175 448.557 601.075 450.731 603.234L461.895 614.528C464.135 616.766 466.189 619.134 468.057 621.619C469.924 624.104 471.431 627.006 472.565 630.298C473.698 633.602 474.272 637.623 474.272 642.372C474.272 651.948 472.591 659.443 469.244 664.868C465.896 670.294 460.054 673 451.731 673H451.745Z" fill="white"/>
<path d="M480.714 672.076V570.186H519.42V589.872H500.4V609.727H518.659V628.892H500.4V652.221H520.687V672.076H480.714Z" fill="white"/>
<path d="M535.372 672.076V589.755H523.875V570.186H566.208V589.755H554.711V672.076H535.358H535.372Z" fill="white"/>
<path d="M570.343 672.011V654.759H590.029V672.011H570.343Z" fill="white"/>
<path d="M623.733 672.076V570.186H662.439V590.041H643.193V606.253H661.452V625.874H643.193V672.076H623.733Z" fill="white"/>
<path d="M667.774 672.076V570.186H686.473V672.076H667.774Z" fill="white"/>
<path d="M691.368 672.076L701.758 618.067L693.515 570.134H712.428L717.43 605.16L721.885 570.134H740.851L732.608 618.067L742.945 672.076H723.365L717.256 632.249L710.988 672.076H691.355H691.368Z" fill="white"/>
<path d="M301.31 496.088H0V515.605H301.31V496.088Z" fill="white"/>
<path d="M538.079 234.408L537.919 173.087L435.526 67.9442L451.971 52.7212L560.566 164.226L560.7 212.224L873.933 211.444L874 233.563L538.079 234.408Z" fill="white"/>
<path d="M359.515 233.563H3.52112V211.444H336.841V163.589L451.918 52.4739L467.87 68.1913L359.515 172.814V233.563Z" fill="white"/>
<path d="M572.984 118.245L572.183 31.0446L484.382 31.8122L452.705 0.923828L451.825 1.78256L450.931 0.923828L276.062 171.513H293.974H311.9L451.825 35.013L514.512 96.1652V78.8474V78.6913V61.2043V44.3419H547.989V93.8752V110.92V111.349V128.094H547.229L591.75 171.513H609.662H627.588L572.984 118.245Z" fill="white"/>
<path d="M629.202 172.163H591.483L545.642 127.444H547.335V44.9924H515.192V97.7395L451.838 35.9367L312.193 172.163H274.475L450.931 0L451.825 0.871745L452.718 0L484.662 31.1616L572.85 30.394V31.0445L573.65 117.972L629.202 172.163ZM592.03 170.862H625.987L572.33 118.518L571.543 31.7081L484.128 32.4627L452.732 1.83457L451.838 2.70631L450.945 1.83457L277.676 170.862H311.633L451.838 34.0891L513.858 94.5908V43.6783H548.669V128.55L592.03 170.849V170.862Z" fill="white"/>
</g>
<defs>
<clipPath id="clip0_452_12432">
<rect width="874" height="673" fill="white"/>
</clipPath>
</defs>
</svg>
